{
  "accessors": [
    {
      "bufferView": 0,
      "componentType": 5126,
      "count": 998,
      "type": "VEC3",
      "max": [
        6.8104400634765625,
        20.043289184570313,
        7.5834159851074219
      ],
      "min": [
        -6.8104400634765625,
        -4.1248995330533944E-08,
        -7.5834159851074219
      ]
    },
    {
      "bufferView": 1,
      "componentType": 5126,
      "count": 998,
      "type": "VEC3",
      "max": [
        1.0,
        1.0,
        1.0
      ],
      "min": [
        -1.0,
        -1.0,
        -1.0
      ]
    },
    {
      "bufferView": 2,
      "componentType": 5126,
      "count": 998,
      "type": "VEC4",
      "max": [
        1.0,
        1.0,
        1.0,
        1.0
      ],
      "min": [
        -1.0,
        -1.0,
        -1.0,
        -1.0
      ]
    },
    {
      "bufferView": 3,
      "componentType": 5126,
      "count": 998,
      "type": "VEC2",
      "max": [
        0.9893653392791748,
        0.99430954456329346
      ],
      "min": [
        0.0024909079074859619,
        0.056881844997406006
      ]
    },
    {
      "bufferView": 4,
      "componentType": 5125,
      "count": 1824,
      "type": "SCALAR",
      "max": [
        997.0
      ],
      "min": [
        0.0
      ]
    }
  ],
  "asset": {
    "generator": "Plattar UnityGLTF (2019.3.12f1)",
    "version": "2.0"
  },
  "buffers": [
    {
      "uri": "Building_OfficeMedium_Brown.bin",
      "byteLength": 55200
    }
  ],
  "bufferViews": [
    {
      "buffer": 0,
      "byteLength": 11976
    },
    {
      "buffer": 0,
      "byteOffset": 11976,
      "byteLength": 11976
    },
    {
      "buffer": 0,
      "byteOffset": 23952,
      "byteLength": 15968
    },
    {
      "buffer": 0,
      "byteOffset": 39920,
      "byteLength": 7984
    },
    {
      "buffer": 0,
      "byteOffset": 47904,
      "byteLength": 7296
    }
  ],
  "images": [
    {
      "uri": "Building03c.jpg",
      "name": "Building03c"
    }
  ],
  "materials": [
    {
      "pbrMetallicRoughness": {
        "baseColorTexture": {
          "index": 0
        },
        "metallicFactor": 0.0,
        "roughnessFactor": 0.5
      },
      "name": "Building03_Brown"
    }
  ],
  "meshes": [
    {
      "primitives": [
        {
          "attributes": {
            "POSITION": 0,
            "NORMAL": 1,
            "TANGENT": 2,
            "TEXCOORD_0": 3
          },
          "indices": 4,
          "material": 0
        }
      ],
      "name": "Building_OfficeMedium_Brown"
    }
  ],
  "nodes": [
    {
      "mesh": 0,
      "rotation": [
        0.0,
        1.0,
        0.0,
        4.371139E-08
      ],
      "translation": [
        -4.81517,
        0.0,
        -37.82495
      ],
      "name": "Building_OfficeMedium_Brown"
    }
  ],
  "samplers": [
    {
      "magFilter": 9728,
      "minFilter": 9984
    }
  ],
  "scene": 0,
  "scenes": [
    {
      "nodes": [
        0
      ],
      "name": "Building_OfficeMedium_Brown"
    }
  ],
  "textures": [
    {
      "sampler": 0,
      "source": 0,
      "name": "Building03c"
    }
  ]
}