{
  "accessors": [
    {
      "bufferView": 0,
      "componentType": 5126,
      "count": 1281,
      "type": "VEC3",
      "max": [
        5.3150787353515625,
        14.524448394775391,
        9.2605438232421875
      ],
      "min": [
        -5.3150672912597656,
        -4.76837158203125E-07,
        -9.26053237915039
      ]
    },
    {
      "bufferView": 1,
      "componentType": 5126,
      "count": 1281,
      "type": "VEC3",
      "max": [
        1.0,
        1.0,
        1.0
      ],
      "min": [
        -1.0,
        -1.0,
        -1.0
      ]
    },
    {
      "bufferView": 2,
      "componentType": 5126,
      "count": 1281,
      "type": "VEC4",
      "max": [
        1.0,
        1.0,
        1.0,
        1.0
      ],
      "min": [
        -0.0065953107550740242,
        -0.00869082286953926,
        0.0,
        -1.0
      ]
    },
    {
      "bufferView": 3,
      "componentType": 5126,
      "count": 1281,
      "type": "VEC2",
      "max": [
        0.41751524806022644,
        0.93836206197738647
      ],
      "min": [
        0.11254577338695526,
        0.51160192489624023
      ]
    },
    {
      "bufferView": 4,
      "componentType": 5123,
      "count": 2364,
      "type": "SCALAR",
      "max": [
        1280.0
      ],
      "min": [
        0.0
      ]
    }
  ],
  "asset": {
    "version": "2.0"
  },
  "buffers": [
    {
      "uri": "Building_House_04.bin",
      "byteLength": 66216
    }
  ],
  "bufferViews": [
    {
      "buffer": 0,
      "byteLength": 15372
    },
    {
      "buffer": 0,
      "byteOffset": 15372,
      "byteLength": 15372
    },
    {
      "buffer": 0,
      "byteOffset": 30744,
      "byteLength": 20496
    },
    {
      "buffer": 0,
      "byteOffset": 51240,
      "byteLength": 10248
    },
    {
      "buffer": 0,
      "byteOffset": 61488,
      "byteLength": 4728
    }
  ],
  "images": [
    {
      "uri": "SimpleTown.png",
      "name": "SimpleTown"
    }
  ],
  "materials": [
    {
      "pbrMetallicRoughness": {
        "baseColorTexture": {
          "index": 0
        },
        "metallicFactor": 0.0,
        "roughnessFactor": 0.5
      },
      "emissiveFactor": [
        0.0,
        0.0,
        0.0
      ],
      "name": "SimpleTown"
    }
  ],
  "meshes": [
    {
      "primitives": [
        {
          "attributes": {
            "POSITION": 0,
            "NORMAL": 1,
            "TANGENT": 2,
            "TEXCOORD_0": 3
          },
          "indices": 4,
          "material": 0
        }
      ],
      "name": "Building_House_04"
    }
  ],
  "nodes": [
    {
      "mesh": 0,
      "rotation": [
        0.0,
        0.0,
        0.0,
        -1.0
      ],
      "name": "Building_House_04"
    }
  ],
  "samplers": [
    {}
  ],
  "scene": 0,
  "scenes": [
    {
      "nodes": [
        0
      ],
      "name": "Building_House_04"
    }
  ],
  "textures": [
    {
      "sampler": 0,
      "source": 0,
      "name": "SimpleTown"
    }
  ]
}