{
    "asset" : {
        "generator" : "Khronos glTF Blender I/O v1.2.75",
        "version" : "2.0"
    },
    "scene" : 0,
    "scenes" : [
        {
            "name" : "Scene",
            "nodes" : [
                4,
                5,
                6
            ]
        }
    ],
    "nodes" : [
        {
            "mesh" : 0,
            "name" : "bus_fl_wheel_mesh",
            "rotation" : [
                0,
                0,
                0,
                -1
            ],
            "translation" : [
                1.2728427648544312,
                0.36275532841682434,
                3.386155605316162
            ]
        },
        {
            "mesh" : 1,
            "name" : "bus_fr_wheel_mesh",
            "rotation" : [
                0,
                0,
                0,
                -1
            ],
            "translation" : [
                -1.2728427648544312,
                0.36275532841682434,
                3.386155605316162
            ]
        },
        {
            "mesh" : 2,
            "name" : "bus_rl_wheel_mesh",
            "rotation" : [
                0,
                0,
                0,
                -1
            ],
            "translation" : [
                1.2728427648544312,
                0.36275503039360046,
                -3.459519386291504
            ]
        },
        {
            "mesh" : 3,
            "name" : "bus_rr_wheel_mesh",
            "rotation" : [
                0,
                0,
                0,
                -1
            ],
            "translation" : [
                -1.2728427648544312,
                0.36275503039360046,
                -3.459519386291504
            ]
        },
        {
            "children" : [
                0,
                1,
                2,
                3
            ],
            "mesh" : 4,
            "name" : "bus_seperate_brown",
            "rotation" : [
                0,
                0,
                0,
                -1
            ]
        },
        {
            "name" : "Light",
            "rotation" : [
                0.16907575726509094,
                0.7558803558349609,
                -0.27217137813568115,
                0.570947527885437
            ],
            "translation" : [
                4.076245307922363,
                5.903861999511719,
                -1.0054539442062378
            ]
        },
        {
            "name" : "Camera",
            "rotation" : [
                0.483536034822464,
                0.33687159419059753,
                -0.20870360732078552,
                0.7804827094078064
            ],
            "translation" : [
                7.358891487121582,
                4.958309173583984,
                6.925790786743164
            ]
        }
    ],
    "materials" : [
        {
            "emissiveFactor" : [
                0,
                0,
                0
            ],
            "name" : "Vehicle_Bus_Brown",
            "pbrMetallicRoughness" : {
                "baseColorTexture" : {
                    "index" : 0,
                    "texCoord" : 0
                },
                "metallicFactor" : 0,
                "roughnessFactor" : 0.5
            }
        }
    ],
    "meshes" : [
        {
            "name" : "bus_fl_wheel_mesh",
            "primitives" : [
                {
                    "attributes" : {
                        "POSITION" : 0,
                        "NORMAL" : 1,
                        "TEXCOORD_0" : 2
                    },
                    "indices" : 3,
                    "material" : 0
                }
            ]
        },
        {
            "name" : "bus_fr_wheel_mesh",
            "primitives" : [
                {
                    "attributes" : {
                        "POSITION" : 4,
                        "NORMAL" : 5,
                        "TEXCOORD_0" : 6
                    },
                    "indices" : 7,
                    "material" : 0
                }
            ]
        },
        {
            "name" : "bus_rl_wheel_mesh",
            "primitives" : [
                {
                    "attributes" : {
                        "POSITION" : 8,
                        "NORMAL" : 9,
                        "TEXCOORD_0" : 10
                    },
                    "indices" : 11,
                    "material" : 0
                }
            ]
        },
        {
            "name" : "bus_rr_wheel_mesh",
            "primitives" : [
                {
                    "attributes" : {
                        "POSITION" : 12,
                        "NORMAL" : 13,
                        "TEXCOORD_0" : 14
                    },
                    "indices" : 15,
                    "material" : 0
                }
            ]
        },
        {
            "name" : "bus_seperate_brown",
            "primitives" : [
                {
                    "attributes" : {
                        "POSITION" : 16,
                        "NORMAL" : 17,
                        "TEXCOORD_0" : 18
                    },
                    "indices" : 19,
                    "material" : 0
                }
            ]
        }
    ],
    "textures" : [
        {
            "sampler" : 0,
            "source" : 0
        }
    ],
    "images" : [
        {
            "bufferView" : 4,
            "mimeType" : "image/jpeg",
            "name" : "Vehicle_Bus_a"
        }
    ],
    "accessors" : [
        {
            "bufferView" : 0,
            "componentType" : 5126,
            "count" : 118,
            "max" : [
                0.11611521244049072,
                0.36176756024360657,
                0.36176931858062744
            ],
            "min" : [
                -0.11611521244049072,
                -0.36176756024360657,
                -0.36176931858062744
            ],
            "type" : "VEC3"
        },
        {
            "bufferView" : 1,
            "componentType" : 5126,
            "count" : 118,
            "type" : "VEC3"
        },
        {
            "bufferView" : 2,
            "componentType" : 5126,
            "count" : 118,
            "type" : "VEC2"
        },
        {
            "bufferView" : 3,
            "componentType" : 5123,
            "count" : 138,
            "type" : "SCALAR"
        },
        {
            "bufferView" : 5,
            "componentType" : 5126,
            "count" : 116,
            "max" : [
                0.11611521244049072,
                0.36176756024360657,
                0.36176931858062744
            ],
            "min" : [
                -0.11611521244049072,
                -0.36176756024360657,
                -0.36176931858062744
            ],
            "type" : "VEC3"
        },
        {
            "bufferView" : 6,
            "componentType" : 5126,
            "count" : 116,
            "type" : "VEC3"
        },
        {
            "bufferView" : 7,
            "componentType" : 5126,
            "count" : 116,
            "type" : "VEC2"
        },
        {
            "bufferView" : 8,
            "componentType" : 5123,
            "count" : 138,
            "type" : "SCALAR"
        },
        {
            "bufferView" : 9,
            "componentType" : 5126,
            "count" : 122,
            "max" : [
                0.11611521244049072,
                0.3617679178714752,
                0.3617687225341797
            ],
            "min" : [
                -0.11611521244049072,
                -0.3617679178714752,
                -0.3617687225341797
            ],
            "type" : "VEC3"
        },
        {
            "bufferView" : 10,
            "componentType" : 5126,
            "count" : 122,
            "type" : "VEC3"
        },
        {
            "bufferView" : 11,
            "componentType" : 5126,
            "count" : 122,
            "type" : "VEC2"
        },
        {
            "bufferView" : 12,
            "componentType" : 5123,
            "count" : 138,
            "type" : "SCALAR"
        },
        {
            "bufferView" : 13,
            "componentType" : 5126,
            "count" : 110,
            "max" : [
                0.11611521244049072,
                0.3617679178714752,
                0.3617687225341797
            ],
            "min" : [
                -0.11611521244049072,
                -0.3617679178714752,
                -0.3617687225341797
            ],
            "type" : "VEC3"
        },
        {
            "bufferView" : 14,
            "componentType" : 5126,
            "count" : 110,
            "type" : "VEC3"
        },
        {
            "bufferView" : 15,
            "componentType" : 5126,
            "count" : 110,
            "type" : "VEC2"
        },
        {
            "bufferView" : 16,
            "componentType" : 5123,
            "count" : 138,
            "type" : "SCALAR"
        },
        {
            "bufferView" : 17,
            "componentType" : 5126,
            "count" : 817,
            "max" : [
                1.721764087677002,
                3.2656197547912598,
                4.521145820617676
            ],
            "min" : [
                -1.721764087677002,
                0.25495409965515137,
                -4.521142959594727
            ],
            "type" : "VEC3"
        },
        {
            "bufferView" : 18,
            "componentType" : 5126,
            "count" : 817,
            "type" : "VEC3"
        },
        {
            "bufferView" : 19,
            "componentType" : 5126,
            "count" : 817,
            "type" : "VEC2"
        },
        {
            "bufferView" : 20,
            "componentType" : 5123,
            "count" : 1176,
            "type" : "SCALAR"
        }
    ],
    "bufferViews" : [
        {
            "buffer" : 0,
            "byteLength" : 1416,
            "byteOffset" : 0
        },
        {
            "buffer" : 0,
            "byteLength" : 1416,
            "byteOffset" : 1416
        },
        {
            "buffer" : 0,
            "byteLength" : 944,
            "byteOffset" : 2832
        },
        {
            "buffer" : 0,
            "byteLength" : 276,
            "byteOffset" : 3776
        },
        {
            "buffer" : 0,
            "byteLength" : 12359,
            "byteOffset" : 4052
        },
        {
            "buffer" : 0,
            "byteLength" : 1392,
            "byteOffset" : 16412
        },
        {
            "buffer" : 0,
            "byteLength" : 1392,
            "byteOffset" : 17804
        },
        {
            "buffer" : 0,
            "byteLength" : 928,
            "byteOffset" : 19196
        },
        {
            "buffer" : 0,
            "byteLength" : 276,
            "byteOffset" : 20124
        },
        {
            "buffer" : 0,
            "byteLength" : 1464,
            "byteOffset" : 20400
        },
        {
            "buffer" : 0,
            "byteLength" : 1464,
            "byteOffset" : 21864
        },
        {
            "buffer" : 0,
            "byteLength" : 976,
            "byteOffset" : 23328
        },
        {
            "buffer" : 0,
            "byteLength" : 276,
            "byteOffset" : 24304
        },
        {
            "buffer" : 0,
            "byteLength" : 1320,
            "byteOffset" : 24580
        },
        {
            "buffer" : 0,
            "byteLength" : 1320,
            "byteOffset" : 25900
        },
        {
            "buffer" : 0,
            "byteLength" : 880,
            "byteOffset" : 27220
        },
        {
            "buffer" : 0,
            "byteLength" : 276,
            "byteOffset" : 28100
        },
        {
            "buffer" : 0,
            "byteLength" : 9804,
            "byteOffset" : 28376
        },
        {
            "buffer" : 0,
            "byteLength" : 9804,
            "byteOffset" : 38180
        },
        {
            "buffer" : 0,
            "byteLength" : 6536,
            "byteOffset" : 47984
        },
        {
            "buffer" : 0,
            "byteLength" : 2352,
            "byteOffset" : 54520
        }
    ],
    "samplers" : [
        {
            "magFilter" : 9728,
            "minFilter" : 9984
        }
    ],
    "buffers" : [
        {
            "byteLength" : 56872,
            "uri" : "data:application/octet-stream;base64,"
        }
    ]
}
